<?xml version="1.0" encoding="UTF-8"?>
<!--
Font Awesome Pro 6.0.0-alpha2 by @fontawesome - https://fontawesome.com
License - https://fontawesome.com/license (Commercial License)
-->
<svg xmlns="http://www.w3.org/2000/svg" style="display: none;">
  <symbol id="bars" viewBox="0 0 448 512">
      <path d="M424 392H24C10.8 392 0 402.8 0 416V416C0 429.2 10.8 440 24 440H424C437.2 440 448 429.2 448 416V416C448 402.8 437.2 392 424 392ZM424 72H24C10.8 72 0 82.8 0 96V96C0 109.2 10.8 120 24 120H424C437.2 120 448 109.2 448 96V96C448 82.8 437.2 72 424 72ZM424 232H24C10.8 232 0 242.8 0 256V256C0 269.2 10.8 280 24 280H424C437.2 280 448 269.2 448 256V256C448 242.8 437.2 232 424 232Z"></path>
  </symbol>
  <symbol id="xmark" viewBox="0 0 320 512">
    <path d="M312.973 375.032C322.342 384.401 322.342 399.604 312.973 408.973S288.401 418.342 279.032 408.973L160 289.941L40.968 408.973C31.599 418.342 16.396 418.342 7.027 408.973S-2.342 384.401 7.027 375.032L126.059 256L7.027 136.968C-2.342 127.599 -2.342 112.396 7.027 103.027S31.599 93.658 40.968 103.027L160 222.059L279.032 103.027C288.401 93.658 303.604 93.658 312.973 103.027S322.342 127.599 312.973 136.968L193.941 256L312.973 375.032Z"></path>
  </symbol>
  <symbol id="home" viewBox="0 0 576 512">
    <path d="M576 247.992C576 241.19 573.123 234.435 567.529 229.679L303.531 5.672C299.047 1.891 293.523 0 288 0S276.953 1.891 272.469 5.672L8.471 229.679C2.877 234.435 0 241.19 0 247.992C0 264.08 13.826 271.992 24.02 271.992C29.499 271.992 35.009 270.125 39.533 266.305L64.002 245.541V471.999C64.002 494.062 81.939 512 104.001 512H200.001C222.063 512 240 494.062 240 471.999V351.995H336V471.999C336 494.062 353.937 512 375.999 512H471.999C494.061 512 511.998 494.062 511.998 471.999V245.541L536.467 266.305C540.983 270.118 546.498 271.993 551.983 271.993C562.143 271.993 576 263.963 576 247.992ZM463.999 463.999H383.999V343.995C383.999 321.932 366.062 303.994 344 303.994H232C209.938 303.994 192.001 321.932 192.001 343.995V463.999H112.001V207.991C112.001 207.028 111.564 206.207 111.452 205.274L288 55.455L463.999 204.809V463.999Z "></path>
  </symbol>
  <symbol id="user" viewBox="0 0 448 512">
    <path d="M272 304H176C78.797 304 0 382.797 0 480C0 497.672 14.326 512 32 512H416C433.674 512 448 497.672 448 480C448 382.797 369.203 304 272 304ZM48.994 464C56.895 400.945 110.84 352 176 352H272C337.16 352 391.105 400.945 399.006 464H48.994ZM224 256C294.693 256 352 198.691 352 128C352 57.307 294.693 0 224 0S96 57.307 96 128C96 198.691 153.307 256 224 256ZM224 48C268.111 48 304 83.887 304 128C304 172.111 268.111 208 224 208S144 172.111 144 128C144 83.887 179.889 48 224 48Z"></path>
  </symbol>
  <symbol id="address-book" viewBox="0 0 512 512">
    <path d="M272 288H208C163.82 288 128 323.816 128 368C128 376.836 135.164 384 144 384H336C344.836 384 352 376.836 352 368C352 323.816 316.184 288 272 288ZM240 256C275.348 256 304 227.346 304 192S275.348 128 240 128C204.656 128 176 156.654 176 192S204.656 256 240 256ZM496 320H480V416H496C504.836 416 512 408.836 512 400V336C512 327.164 504.836 320 496 320ZM496 64H480V160H496C504.836 160 512 152.836 512 144V80C512 71.164 504.836 64 496 64ZM496 192H480V288H496C504.836 288 512 280.836 512 272V208C512 199.164 504.836 192 496 192ZM384 0H96C60.654 0 32 28.652 32 64V448C32 483.346 60.654 512 96 512H384C419.346 512 448 483.346 448 448V64C448 28.652 419.346 0 384 0ZM400 448C400 456.836 392.836 464 384 464H96C87.164 464 80 456.836 80 448V64C80 55.162 87.164 48 96 48H384C392.836 48 400 55.162 400 64V448Z"></path>
  </symbol>
</svg>